<?xml version="1.0" encoding="utf-8"?>
<!-- Generator: Adobe Illustrator 17.0.0, SVG Export Plug-In . SVG Version: 6.00 Build 0)  -->
<!DOCTYPE svg PUBLIC "-//W3C//DTD SVG 1.1//EN" "http://www.w3.org/Graphics/SVG/1.1/DTD/svg11.dtd">
<svg version="1.1" id="Layer_1" xmlns="http://www.w3.org/2000/svg" xmlns:xlink="http://www.w3.org/1999/xlink" x="0px" y="0px"
	 width="1280px" height="800px" viewBox="0 0 1280 800" enable-background="new 0 0 1280 800" xml:space="preserve">
<linearGradient id="SVGID_1_" gradientUnits="userSpaceOnUse" x1="815.8474" y1="315.7794" x2="381.0591" y2="479.6932">
	<stop  offset="0" style="stop-color:#FAD5E5"/>
	<stop  offset="1" style="stop-color:#F6AACB"/>
</linearGradient>
<path fill="url(#SVGID_1_)" d="M190.225,710.827c43.513,0,84.317,11.595,119.494,31.861c35.177-20.266,75.981-31.861,119.494-31.861
	c39.588,0,76.931,9.603,109.838,26.596c32.907-16.993,70.249-26.596,109.838-26.596c48.072,0,92.832,14.16,130.357,38.522
	c37.525-24.362,82.285-38.522,130.357-38.522c39.588,0,76.931,9.603,109.838,26.596c32.907-16.993,70.249-26.596,109.838-26.596
	c57.109,0,109.543,19.982,150.722,53.32c0-108.874,0-431.686,0-488.091c0-68.056,1-153.417-246.556-152.028
	C785.889,125.417,689,0,689,0H0v800h3.683C47.629,745.616,114.859,710.827,190.225,710.827z"/>
<linearGradient id="SVGID_2_" gradientUnits="userSpaceOnUse" x1="44.6554" y1="521.9193" x2="0.9515" y2="565.6231">
	<stop  offset="0" style="stop-color:#E898C1"/>
	<stop  offset="1" style="stop-color:#FAD5E5"/>
</linearGradient>
<path display="none" fill="url(#SVGID_2_)" d="M0,653c60.199,0,109-48.801,109-109S60.199,435,0,435"/>
<linearGradient id="SVGID_3_" gradientUnits="userSpaceOnUse" x1="1059.6538" y1="315.9615" x2="1345.1731" y2="315.9615" gradientTransform="matrix(0.866 -0.5 0.5 0.866 39.4875 675.3693)">
	<stop  offset="0" style="stop-color:#FAD5E5"/>
	<stop  offset="1" style="stop-color:#AF92C4"/>
</linearGradient>
<polyline display="none" fill="url(#SVGID_3_)" points="1280.078,514.481 1115.155,419.173 1115.078,228.692 1279.922,133.519 "/>
</svg>
